custom-analysis
version=1
nRows=40
nColumns=13
inDegrees=no

This file contains tibia displacement and acting force.

Units are S.I. units (seconds, meters, Newtons, ...)
Angles are in degrees.

endheader
time	displacement	knee_angle	aACL_R_strain	pACL_R_strain	aPCL_R_strain	pPCL_R_strain	aMCL_R_strain	aLCL_R_strain	aPCL_L_strain	pPCL_L_strain	aMCL_L_strain	aLCL_L_strain
      0.22235818	      0.01853047	     46.03535346	     -0.06224910	     -0.25615907	      0.16844822	     -0.02367027	     -0.17084430	     -0.11444099	      0.06409312	     -0.20994121	      0.02965169	      0.01942636
      0.22336915	      0.01861982	     46.29263635	     -0.06316152	     -0.25862782	      0.17017709	     -0.02264448	     -0.17101011	     -0.11542188	      0.06415708	     -0.20959446	      0.02959766	      0.01942680
      0.22438011	      0.01871019	     46.54939667	     -0.06406293	     -0.26108031	      0.17185971	     -0.02164855	     -0.17116897	     -0.11641200	      0.06421590	     -0.20926757	      0.02954613	      0.01942542
      0.22539108	      0.01880086	     46.80542169	     -0.06496801	     -0.26353207	      0.17351945	     -0.02066373	     -0.17132319	     -0.11740501	      0.06426378	     -0.20896303	      0.02949731	      0.01942267
      0.22640204	      0.01889262	     47.06105215	     -0.06582452	     -0.26592534	      0.17513105	     -0.01970598	     -0.17145606	     -0.11839744	      0.06429725	     -0.20868237	      0.02945135	      0.01941880
      0.22741301	      0.01898463	     47.31604504	     -0.06665846	     -0.26828827	      0.17672160	     -0.01875486	     -0.17157401	     -0.11938463	      0.06431605	     -0.20842633	      0.02940828	      0.01941377
      0.22842397	      0.01907822	     47.57086411	     -0.06741977	     -0.27056607	      0.17824760	     -0.01784358	     -0.17166480	     -0.12037159	      0.06431744	     -0.20819654	      0.02936807	      0.01940758
      0.22948342	      0.01917672	     47.83743215	     -0.06817093	     -0.27289590	      0.17982038	     -0.01689750	     -0.17173645	     -0.12139617	      0.06429598	     -0.20798730	      0.02932899	      0.01940003
      0.23054287	      0.01927446	     48.10305713	     -0.06892452	     -0.27522092	      0.18140500	     -0.01593212	     -0.17179854	     -0.12240692	      0.06425149	     -0.20781074	      0.02929306	      0.01939136
      0.23191248	      0.01939810	     48.44434353	     -0.06997460	     -0.27829567	      0.18351994	     -0.01462012	     -0.17188706	     -0.12368948	      0.06416311	     -0.20762895	      0.02925136	      0.01937833
      0.23328209	      0.01952617	     48.78617062	     -0.07072820	     -0.28103357	      0.18546237	     -0.01341414	     -0.17187154	     -0.12495089	      0.06399416	     -0.20752442	      0.02921478	      0.01936593
      0.23444198	      0.01963387	     49.07503739	     -0.07127725	     -0.28324401	      0.18711740	     -0.01236382	     -0.17181071	     -0.12598010	      0.06377465	     -0.20750679	      0.02918725	      0.01935629
      0.23551247	      0.01973111	     49.34000643	     -0.07188427	     -0.28538174	      0.18870043	     -0.01134813	     -0.17178106	     -0.12692023	      0.06352855	     -0.20754196	      0.02916429	      0.01934666
      0.23658295	      0.01982890	     49.60409205	     -0.07250346	     -0.28752170	      0.19024622	     -0.01035998	     -0.17175936	     -0.12786649	      0.06325162	     -0.20762171	      0.02914356	      0.01933571
      0.23744332	      0.01990643	     49.81520706	     -0.07306113	     -0.28929729	      0.19151051	     -0.00954709	     -0.17176038	     -0.12862327	      0.06301154	     -0.20771550	      0.02912852	      0.01932571
      0.23830369	      0.01998441	     50.02577581	     -0.07360807	     -0.29105304	      0.19274602	     -0.00875411	     -0.17176027	     -0.12938053	      0.06275873	     -0.20783390	      0.02911493	      0.01931457
      0.23941255	      0.02008508	     50.29611291	     -0.07432781	     -0.29331904	      0.19431229	     -0.00775013	     -0.17176888	     -0.13035753	      0.06241722	     -0.20802019	      0.02909960	      0.01929852
      0.24052140	      0.02018804	     50.56608879	     -0.07496057	     -0.29547771	      0.19577807	     -0.00682051	     -0.17175772	     -0.13134013	      0.06205316	     -0.20824563	      0.02908672	      0.01928103
      0.24177172	      0.02030552	     50.86998174	     -0.07557808	     -0.29779182	      0.19735987	     -0.00581858	     -0.17171616	     -0.13243723	      0.06160404	     -0.20855214	      0.02907492	      0.01926030
      0.24302204	      0.02042171	     51.17255233	     -0.07617260	     -0.30006106	      0.19895955	     -0.00478981	     -0.17166010	     -0.13350292	      0.06112580	     -0.20890806	      0.02906572	      0.01923775
      0.24419276	      0.02052843	     51.45444007	     -0.07672760	     -0.30216410	      0.20050414	     -0.00377654	     -0.17159743	     -0.13446376	      0.06065879	     -0.20928154	      0.02905938	      0.01921472
      0.24536349	      0.02063478	     51.73526897	     -0.07725011	     -0.30421320	      0.20203644	     -0.00276443	     -0.17152385	     -0.13540475	      0.06017745	     -0.20969057	      0.02905519	      0.01918984
      0.24645997	      0.02073230	     51.99638825	     -0.07784401	     -0.30622509	      0.20351831	     -0.00177741	     -0.17149133	     -0.13627473	      0.05971617	     -0.21010323	      0.02905315	      0.01916487
      0.24755644	      0.02083183	     52.25697941	     -0.07837316	     -0.30815160	      0.20490594	     -0.00086427	     -0.17145145	     -0.13715252	      0.05924650	     -0.21054221	      0.02905288	      0.01913834
      0.24941898	      0.02099724	     52.69570573	     -0.07944329	     -0.31156164	      0.20732969	      0.00074611	     -0.17144868	     -0.13861721	      0.05843274	     -0.21134389	      0.02905623	      0.01908991
      0.25063376	      0.02111556	     52.98263255	     -0.07989294	     -0.31350303	      0.20850702	      0.00145802	     -0.17142583	     -0.13965746	      0.05789241	     -0.21190209	      0.02906080	      0.01905617
      0.25184854	      0.02123784	     53.27033847	     -0.08012159	     -0.31519316	      0.20952617	      0.00204841	     -0.17134529	     -0.14069654	      0.05734501	     -0.21248626	      0.02906704	      0.01902083
      0.25339075	      0.02138847	     53.63301890	     -0.08057219	     -0.31747604	      0.21094697	      0.00290670	     -0.17129419	     -0.14197462	      0.05664057	     -0.21326316	      0.02907707	      0.01897376
      0.25481592	      0.02152402	     53.96551892	     -0.08113478	     -0.31970578	      0.21234733	      0.00377497	     -0.17130080	     -0.14312534	      0.05598092	     -0.21401415	      0.02908808	      0.01892810
      0.25624108	      0.02166247	     54.29799355	     -0.08149663	     -0.32169401	      0.21361066	      0.00453938	     -0.17125954	     -0.14426272	      0.05532574	     -0.21478860	      0.02910057	      0.01887990
      0.25766625	      0.02179709	     54.62837532	     -0.08192072	     -0.32371150	      0.21497044	      0.00539306	     -0.17123652	     -0.14534797	      0.05469358	     -0.21557413	      0.02911458	      0.01882848
      0.25968998	      0.02198207	     55.09232453	     -0.08282511	     -0.32682968	      0.21703894	      0.00672104	     -0.17132472	     -0.14684917	      0.05380979	     -0.21671594	      0.02913664	      0.01875171
      0.26171371	      0.02216358	     55.55223972	     -0.08374504	     -0.32988528	      0.21913530	      0.00808763	     -0.17144013	     -0.14828323	      0.05292770	     -0.21789390	      0.02916019	      0.01867129
      0.26284873	      0.02226427	     55.80786028	     -0.08433233	     -0.33163919	      0.22030228	      0.00884779	     -0.17154898	     -0.14907932	      0.05245078	     -0.21856315	      0.02917372	      0.01862366
      0.26398375	      0.02236943	     56.06479546	     -0.08458961	     -0.33302753	      0.22128682	      0.00946466	     -0.17156506	     -0.14986383	      0.05200352	     -0.21922771	      0.02918771	      0.01857367
      0.26548286	      0.02250447	     56.40239404	     -0.08494061	     -0.33483126	      0.22268334	      0.01037143	     -0.17158749	     -0.15083630	      0.05146165	     -0.22008992	      0.02920719	      0.01850420
      0.26677153	      0.02261795	     56.69081295	     -0.08530121	     -0.33640688	      0.22393800	      0.01120126	     -0.17163559	     -0.15163813	      0.05102662	     -0.22082107	      0.02922450	      0.01844170
      0.26831905	      0.02275310	     57.03558493	     -0.08572007	     -0.33824108	      0.22543690	      0.01219640	     -0.17170809	     -0.15257164	      0.05051671	     -0.22169705	      0.02924554	      0.01836440
      0.26960122	      0.02286442	     57.32038882	     -0.08599151	     -0.33964554	      0.22666379	      0.01301497	     -0.17175608	     -0.15331147	      0.05010305	     -0.22242032	      0.02926312	      0.01829880
      0.27088340	      0.02297638	     57.60497913	     -0.08616117	     -0.34091363	      0.22783768	      0.01379267	     -0.17178815	     -0.15403185	      0.04970391	     -0.22313832	      0.02928073	      0.01823150
